Coordinates
version=1
nRows=13
nColumns=40
inDegrees=yes

Units are S.I. units (second, meters, Newtons, ...)
If the header above contains a line with 'inDegrees', this indicates whether rotational values are in degrees (yes) or radians (no).

endheader
time	pelvis_tilt	pelvis_list	pelvis_rotation	pelvis_tx	pelvis_ty	pelvis_tz	hip_flexion_r	hip_adduction_r	hip_rotation_r	knee_angle_r	knee_angle_r_beta	ankle_angle_r	subtalar_angle_r	mtp_angle_r	hip_flexion_l	hip_adduction_l	hip_rotation_l	knee_angle_l	knee_angle_l_beta	ankle_angle_l	subtalar_angle_l	mtp_angle_l	lumbar_extension	lumbar_bending	lumbar_rotation	arm_flex_r	arm_add_r	arm_rot_r	elbow_flex_r	pro_sup_r	wrist_flex_r	wrist_dev_r	arm_flex_l	arm_add_l	arm_rot_l	elbow_flex_l	pro_sup_l	wrist_flex_l	wrist_dev_l
      3.60000000	    -29.86134419	     13.42098778	      6.53090454	      0.14222804	      0.84291602	     -1.15699566	     51.31891177	    -43.00211323	    -21.01287528	     28.61633275	      0.49944923	      2.84870222	      1.03902133	      0.00000000	     39.87661742	     -7.67446287	    -32.31465535	     12.86543259	      0.22454416	     -8.30348654	      7.29337812	      0.00000000	      0.00000000	      0.00000000	      0.00000000	     43.44862144	    -16.03249171	     43.44862144	     75.70682971	     44.53697444	      0.00000000	      0.00000000	     43.44862144	    -16.03249171	     43.44862144	     75.70682971	     44.53697444	      0.00000000	      0.00000000
      3.60500000	    -30.02058380	     13.15808111	      6.48791790	      0.14139955	      0.84249953	     -1.15679124	     51.54296230	    -42.67919186	    -20.85180848	     28.69527690	      0.50082706	      2.72990231	      0.64797498	      0.00000000	     40.31000114	     -8.07895574	    -32.33259991	     13.25463805	      0.23133708	     -8.19419081	      7.35615281	      0.00000000	      0.00000000	      0.00000000	      0.00000000	     43.46098471	    -16.01937458	     43.46098471	     75.69063589	     44.55982522	      0.00000000	      0.00000000	     43.46098471	    -16.01937458	     43.46098471	     75.69063589	     44.55982522	      0.00000000	      0.00000000
      3.61000000	    -30.18260181	     12.96850538	      6.54074586	      0.14062087	      0.84211606	     -1.15682709	     51.77571808	    -42.52061751	    -20.72301717	     28.81069233	      0.50284144	      2.59493803	      0.30447377	      0.00000000	     40.67810022	     -8.28743085	    -32.18691664	     13.47154470	      0.23512281	     -8.13384722	      7.37240851	      0.00000000	      0.00000000	      0.00000000	      0.00000000	     43.47054149	    -16.00927405	     43.47054149	     75.67826122	     44.57704381	      0.00000000	      0.00000000	     43.47054149	    -16.00927405	     43.47054149	     75.67826122	     44.57704381	      0.00000000	      0.00000000
      3.61500000	    -30.38844761	     12.73605509	      6.57426910	      0.13974188	      0.84161361	     -1.15680381	     52.06074121	    -42.30051438	    -20.56911749	     28.93009349	      0.50492538	      2.46331070	     -0.07088694	      0.00000000	     41.15362453	     -8.58355028	    -32.07619732	     13.80988343	      0.24102794	     -8.07224621	      7.30405102	      0.00000000	      0.00000000	      0.00000000	      0.00000000	     43.48093096	    -15.99834764	     43.48093096	     75.66502124	     44.59489427	      0.00000000	      0.00000000	     43.48093096	    -15.99834764	     43.48093096	     75.66502124	     44.59489427	      0.00000000	      0.00000000
      3.62000000	    -30.35911172	     12.56280937	      6.47519586	      0.13892114	      0.84143694	     -1.15654884	     52.16286142	    -42.06349823	    -20.43341083	     29.05698752	      0.50714010	      2.44709893	     -0.26140196	      0.00000000	     41.33813127	     -8.89367644	    -32.04908000	     14.10140006	      0.24611586	     -7.98273798	      7.14169979	      0.00000000	      0.00000000	      0.00000000	      0.00000000	     43.48609763	    -15.99296805	     43.48609763	     75.65864776	     44.60292708	      0.00000000	      0.00000000	     43.48609763	    -15.99296805	     43.48609763	     75.65864776	     44.60292708	      0.00000000	      0.00000000
      3.62500000	    -31.41616285	     12.57013715	      6.95720254	      0.13693839	      0.83915074	     -1.15747931	     53.76082515	    -42.38621588	    -19.80668550	     29.53222861	      0.51543462	      2.24215245	     -0.80567402	      0.00000000	     42.76313193	     -8.64503362	    -31.54094446	     14.43056099	      0.25186080	     -8.09338541	      6.57060567	      0.00000000	      0.00000000	      0.00000000	      0.00000000	     43.50041582	    -15.97773888	     43.50041582	     75.63967036	     44.63122474	      0.00000000	      0.00000000	     43.50041582	    -15.97773888	     43.50041582	     75.63967036	     44.63122474	      0.00000000	      0.00000000
      3.63000000	    -31.60530171	     12.23532857	      6.92245424	      0.13590477	      0.83862358	     -1.15734054	     53.99417875	    -42.01638091	    -19.68334045	     29.61598639	      0.51689647	      2.05263474	     -1.28208082	      0.00000000	     43.28489363	     -9.10818773	    -31.47329605	     14.85456180	      0.25926101	     -7.97025699	      6.66816187	      0.00000000	      0.00000000	      0.00000000	      0.00000000	     43.51010415	    -15.96765525	     43.51010415	     75.62772717	     44.64632701	      0.00000000	      0.00000000	     43.51010415	    -15.96765525	     43.51010415	     75.62772717	     44.64632701	      0.00000000	      0.00000000
      3.63500000	    -31.82905617	     11.85837803	      6.90246652	      0.13478178	      0.83804332	     -1.15723387	     54.23555145	    -41.62810586	    -19.60310731	     29.69261399	      0.51823388	      1.85369146	     -1.74569418	      0.00000000	     43.88010261	     -9.60537964	    -31.37569824	     15.31805789	      0.26735055	     -7.85257086	      6.75350802	      0.00000000	      0.00000000	      0.00000000	      0.00000000	     43.51991774	    -15.95752110	     43.51991774	     75.61593025	     44.66053065	      0.00000000	      0.00000000	     43.51991774	    -15.95752110	     43.51991774	     75.61593025	     44.66053065	      0.00000000	      0.00000000
      3.64000000	    -32.10241176	     11.48601068	      6.91901690	      0.13354535	      0.83729038	     -1.15723797	     54.55393651	    -41.28483646	    -19.51843966	     29.80378041	      0.52017410	      1.67770073	     -2.20176926	      0.00000000	     44.56072710	    -10.07386504	    -31.22922228	     15.81958468	      0.27610384	     -7.73665623	      6.76040208	      0.00000000	      0.00000000	      0.00000000	      0.00000000	     43.53051709	    -15.94663036	     43.53051709	     75.60338595	     44.67525328	      0.00000000	      0.00000000	     43.53051709	    -15.94663036	     43.53051709	     75.60338595	     44.67525328	      0.00000000	      0.00000000
      3.64500000	    -32.41502929	     11.13177456	      7.00249802	      0.13225431	      0.83645702	     -1.15738096	     54.91848176	    -41.02476083	    -19.43569254	     29.94840287	      0.52269824	      1.48024276	     -2.63815060	      0.00000000	     45.28634364	    -10.46352500	    -31.04089922	     16.28543511	      0.28423446	     -7.63928679	      6.80205239	      0.00000000	      0.00000000	      0.00000000	      0.00000000	     43.54043904	    -15.93649429	     43.54043904	     75.59185557	     44.68834123	      0.00000000	      0.00000000	     43.54043904	    -15.93649429	     43.54043904	     75.59185557	     44.68834123	      0.00000000	      0.00000000
      3.65000000	    -32.72315918	     10.78634030	      7.03728221	      0.13096317	      0.83555728	     -1.15742006	     55.32629104	    -40.74720543	    -19.35580082	     30.12048367	      0.52570161	      1.34957271	     -3.03818155	      0.00000000	     46.00048247	    -10.87748092	    -30.82873133	     16.77044281	      0.29269944	     -7.52343128	      6.73081233	      0.00000000	      0.00000000	      0.00000000	      0.00000000	     43.55011356	    -15.92665146	     43.55011356	     75.58075588	     44.70066723	      0.00000000	      0.00000000	     43.55011356	    -15.92665146	     43.55011356	     75.58075588	     44.70066723	      0.00000000	      0.00000000
      3.65500000	    -33.97802572	     10.62739326	      7.50948842	      0.12831608	      0.83251630	     -1.15836399	     57.20914045	    -41.02336456	    -18.87295444	     30.76206490	      0.53689932	      1.29133782	     -3.42851066	      0.00000000	     47.84149769	    -10.78510940	    -30.19695045	     17.37062798	      0.30317465	     -7.50758061	      5.90148977	      0.00000000	      0.00000000	      0.00000000	      0.00000000	     43.56255939	    -15.91380653	     43.56255939	     75.56576205	     44.71941414	      0.00000000	      0.00000000	     43.56255939	    -15.91380653	     43.56255939	     75.56576205	     44.71941414	      0.00000000	      0.00000000
      3.66000000	    -34.09212225	     10.26510892	      7.46619625	      0.12720130	      0.83196843	     -1.15822899	     57.34388657	    -40.67625131	    -18.83914071	     30.86358526	      0.53867118	      1.12635899	     -3.79329964	      0.00000000	     48.34642195	    -11.27993457	    -30.12769092	     17.84436420	      0.31144291	     -7.41121157	      6.08140323	      0.00000000	      0.00000000	      0.00000000	      0.00000000	     43.57134409	    -15.90494139	     43.57134409	     75.55594753	     44.72971166	      0.00000000	      0.00000000	     43.57134409	    -15.90494139	     43.57134409	     75.55594753	     44.72971166	      0.00000000	      0.00000000
